# xmcd
#
# Track frame offsets:
#	150
#	14160
#	29345
#	46007
#	63532
#	78037
#	93402
#	113686
#	137134
#	152470
#	168674
#	182259
#	199491
#	212407
#
# Disc length: 3066 seconds
#
# Revision: 0
# Processed by: cddbd v1.4PL0 Copyright (c) Steve Scherf et al.
# Submitted via: audiograbber 1.80
#
DISCID=b20bf80e
DTITLE=Gina Jeffreys - Up Close
DYEAR=1900
DGENRE=
TTITLE0=Girl Talk
TTITLE1=Under The Influence Of Love
TTITLE2=The Bridge
TTITLE3=Josephine
TTITLE4=I Don't Do Lonely
TTITLE5=Up Close Personal Attention
TTITLE6=I Haven't Got A Heart
TTITLE7=The Weatherman
TTITLE8=Hard Working Man
TTITLE9=Don't
TTITLE10=Coming Back
TTITLE11=Since You Went Away
TTITLE12=I Believe
TTITLE13=Didn't We Shine
EXTD=
EXTT0=
EXTT1=
EXTT2=
EXTT3=
EXTT4=
EXTT5=
EXTT6=
EXTT7=
EXTT8=
EXTT9=
EXTT10=
EXTT11=
EXTT12=
EXTT13=
PLAYORDER=
